<svg xmlns="http://www.w3.org/2000/svg" viewBox="0 0 32 32"><g id="solar_system" data-name="solar system"><path d="M27.93,23.31A13.85,13.85,0,0,0,30,16,14,14,0,1,0,16,30a13.8,13.8,0,0,0,5.39-1.08,1,1,0,1,0-.77-1.84,12.05,12.05,0,1,1,5-4,3.48,3.48,0,1,0,2.28.19ZM26.5,28A1.5,1.5,0,1,1,28,26.5,1.5,1.5,0,0,1,26.5,28Z"/><path d="M7,16a9,9,0,1,0,9-9,1,1,0,0,0,0,2,7,7,0,1,1-7,7,7.15,7.15,0,0,1,.36-2.21A3.34,3.34,0,0,0,10.5,14,3.5,3.5,0,1,0,7,10.5a3.46,3.46,0,0,0,.69,2.07s0,0,0,0A8.89,8.89,0,0,0,7,16Zm3.5-7A1.5,1.5,0,1,1,9,10.5,1.5,1.5,0,0,1,10.5,9Z"/><path d="M16,19a3,3,0,1,0-3-3A3,3,0,0,0,16,19Zm0-4a1,1,0,1,1-1,1A1,1,0,0,1,16,15Z"/></g></svg>